<?xml version="1.0" encoding="utf-8"?>
<!-- Generator: Adobe Illustrator 18.0.0, SVG Export Plug-In . SVG Version: 6.00 Build 0)  -->
<!DOCTYPE svg PUBLIC "-//W3C//DTD SVG 1.1//EN" "http://www.w3.org/Graphics/SVG/1.1/DTD/svg11.dtd" [
	<!ENTITY ns_extend "http://ns.adobe.com/Extensibility/1.0/">
	<!ENTITY ns_ai "http://ns.adobe.com/AdobeIllustrator/10.0/">
	<!ENTITY ns_graphs "http://ns.adobe.com/Graphs/1.0/">
	<!ENTITY ns_vars "http://ns.adobe.com/Variables/1.0/">
	<!ENTITY ns_imrep "http://ns.adobe.com/ImageReplacement/1.0/">
	<!ENTITY ns_sfw "http://ns.adobe.com/SaveForWeb/1.0/">
	<!ENTITY ns_custom "http://ns.adobe.com/GenericCustomNamespace/1.0/">
	<!ENTITY ns_adobe_xpath "http://ns.adobe.com/XPath/1.0/">
]>
<svg version="1.1" id="Laag_1" xmlns:x="&ns_extend;" xmlns:i="&ns_ai;" xmlns:graph="&ns_graphs;"
	 xmlns="http://www.w3.org/2000/svg" xmlns:xlink="http://www.w3.org/1999/xlink" x="0px" y="0px" viewBox="0 0 62.6 62.6"
	 enable-background="new 0 0 62.6 62.6" xml:space="preserve" width="63px" height="63px">
<metadata>
	<sfw  xmlns="&ns_sfw;">
		<slices></slices>
		<sliceSourceBounds  height="60.1" width="60.1" y="-500.1" x="587.3" bottomLeftOrigin="true"></sliceSourceBounds>
	</sfw>
</metadata>
<circle fill="#292C44" stroke="#FFFFFF" stroke-width="3" stroke-miterlimit="10" cx="31" cy="31.3" r="28.6"/>
<g>
	<path fill="#FFFFFF" d="M33.8,21.5h-1.6c-0.2,0-0.3-0.1-0.3-0.3v-1.6c0-0.2,0.1-0.3,0.3-0.3h1.6c0.2,0,0.3,0.1,0.3,0.3v1.6
		C34.1,21.4,33.9,21.5,33.8,21.5z"/>
	<path fill="#FFFFFF" d="M33.8,25.3h-1.6c-0.2,0-0.3-0.1-0.3-0.3v-1.6c0-0.2,0.1-0.3,0.3-0.3h1.6c0.2,0,0.3,0.1,0.3,0.3v1.6
		C34.1,25.1,33.9,25.3,33.8,25.3z"/>
	<path fill="#FFFFFF" d="M33.8,29h-1.6c-0.2,0-0.3-0.1-0.3-0.3V27c0-0.2,0.1-0.3,0.3-0.3h1.6c0.2,0,0.3,0.1,0.3,0.3v1.6
		C34.1,28.8,33.9,29,33.8,29z"/>
	<path fill="#FFFFFF" d="M33.8,32.7h-1.6c-0.2,0-0.3-0.1-0.3-0.3v-1.6c0-0.2,0.1-0.3,0.3-0.3h1.6c0.2,0,0.3,0.1,0.3,0.3v1.6
		C34.1,32.6,33.9,32.7,33.8,32.7z"/>
	<path fill="#FFFFFF" d="M33.7,36.4h-1.6c-0.2,0-0.3-0.1-0.3-0.3v-1.6c0-0.2,0.1-0.3,0.3-0.3h1.6c0.2,0,0.3,0.1,0.3,0.3v1.6
		C34.1,36.3,33.9,36.4,33.7,36.4z"/>
	<path fill="#FFFFFF" d="M31.8,43.8h-7.1c-0.3,0-0.5-0.2-0.5-0.5v-4.7c0-0.3,0.2-0.5,0.5-0.5h7.1c0.3,0,0.5,0.2,0.5,0.5v4.7
		C32.2,43.5,32,43.8,31.8,43.8z M25.3,41.7h6.1L31.3,39h-6.1L25.3,41.7z"/>
	<path fill="#FFFFFF" d="M43.8,16.6l-7-2.3l-0.1,0c0,0,0,0,0,0c0,0-0.1,0-0.1,0c0,0-0.1,0-0.1,0H20c-0.4,0-0.7,0.3-0.7,0.7v33
		c0,0.4,0.3,0.7,0.7,0.7h23.6c0.4,0,0.7-0.3,0.7-0.7V17.3C44.3,17,44.1,16.7,43.8,16.6z M35.8,47.3H20.7V15.7h15.1V47.3z"/>
	<path fill="#FFFFFF" d="M29.8,19.2h-7.1c-0.3,0-0.5,0.3-0.5,0.6v16.1c0,0.3,0.2,0.6,0.5,0.6h7.1c0.3,0,0.5-0.3,0.5-0.6V19.8
		C30.4,19.5,30.1,19.2,29.8,19.2z"/>
</g>
<path display="none" fill="#FFFFFF" d="M49.1,24.1c-0.2-0.2-0.5-0.4-0.8-0.4H20.8l-1.8-6.9c-0.1-0.4-0.5-0.7-0.9-0.7h-3.8
	c-0.5,0-0.9,0.4-0.9,0.9c0,0.5,0.4,0.9,0.9,0.9h3.1L23.1,40c0.1,0.4,0.5,0.7,0.9,0.7h18.5c0.5,0,0.9-0.4,0.9-0.9
	c0-0.5-0.4-0.9-0.9-0.9H24.7l-0.8-3h2.6c0,0,0,0,0,0c0,0,0,0,0,0h14.7c0,0,0,0,0,0s0,0,0,0h3.5c0.4,0,0.7-0.2,0.9-0.6l3.6-10.4
	C49.3,24.6,49.3,24.3,49.1,24.1z M27,41.9c-1.3,0-2.3,1-2.3,2.3s1,2.3,2.3,2.3c1.3,0,2.3-1,2.3-2.3S28.2,41.9,27,41.9z M39.4,41.9
	c-1.3,0-2.3,1-2.3,2.3s1,2.3,2.3,2.3s2.3-1,2.3-2.3S40.6,41.9,39.4,41.9z"/>
</svg>
