<?xml version="1.0" encoding="utf-8"?>
<!-- Generator: Adobe Illustrator 18.0.0, SVG Export Plug-In . SVG Version: 6.00 Build 0)  -->
<!DOCTYPE svg PUBLIC "-//W3C//DTD SVG 1.1//EN" "http://www.w3.org/Graphics/SVG/1.1/DTD/svg11.dtd" [
	<!ENTITY ns_extend "http://ns.adobe.com/Extensibility/1.0/">
	<!ENTITY ns_ai "http://ns.adobe.com/AdobeIllustrator/10.0/">
	<!ENTITY ns_graphs "http://ns.adobe.com/Graphs/1.0/">
	<!ENTITY ns_vars "http://ns.adobe.com/Variables/1.0/">
	<!ENTITY ns_imrep "http://ns.adobe.com/ImageReplacement/1.0/">
	<!ENTITY ns_sfw "http://ns.adobe.com/SaveForWeb/1.0/">
	<!ENTITY ns_custom "http://ns.adobe.com/GenericCustomNamespace/1.0/">
	<!ENTITY ns_adobe_xpath "http://ns.adobe.com/XPath/1.0/">
]>
<svg version="1.1" id="Laag_1" xmlns:x="&ns_extend;" xmlns:i="&ns_ai;" xmlns:graph="&ns_graphs;"
	 xmlns="http://www.w3.org/2000/svg" xmlns:xlink="http://www.w3.org/1999/xlink" x="0px" y="0px" viewBox="0 0 62.6 62.6"
	 enable-background="new 0 0 62.6 62.6" xml:space="preserve" width="63px" height="63px">
<metadata>
	<sfw  xmlns="&ns_sfw;">
		<slices></slices>
		<sliceSourceBounds  height="16383" width="16383" y="-8472" x="-7711" bottomLeftOrigin="true"></sliceSourceBounds>
	</sfw>
</metadata>
<circle fill="#292C44" stroke="#FFFFFF" stroke-width="3" stroke-miterlimit="10" cx="31" cy="31.3" r="28.6"/>
<path fill="#FFFFFF" d="M49.1,24.1c-0.2-0.2-0.5-0.4-0.8-0.4H20.8l-1.8-6.9c-0.1-0.4-0.5-0.7-0.9-0.7h-3.8c-0.5,0-0.9,0.4-0.9,0.9
	c0,0.5,0.4,0.9,0.9,0.9h3.1L23.1,40c0.1,0.4,0.5,0.7,0.9,0.7h18.5c0.5,0,0.9-0.4,0.9-0.9c0-0.5-0.4-0.9-0.9-0.9H24.7l-0.8-3h2.6
	c0,0,0,0,0,0c0,0,0,0,0,0h14.7c0,0,0,0,0,0s0,0,0,0h3.5c0.4,0,0.7-0.2,0.9-0.6l3.6-10.4C49.3,24.6,49.3,24.3,49.1,24.1z M27,41.9
	c-1.3,0-2.3,1-2.3,2.3s1,2.3,2.3,2.3c1.3,0,2.3-1,2.3-2.3S28.2,41.9,27,41.9z M39.4,41.9c-1.3,0-2.3,1-2.3,2.3s1,2.3,2.3,2.3
	s2.3-1,2.3-2.3S40.6,41.9,39.4,41.9z"/>
</svg>
